<svg width="200" height="200" viewBox="0 0 200 200" xmlns="http://www.w3.org/2000/svg">
  <defs>
    <!-- Enhanced gradient with more modern colors -->
    <linearGradient id="logoGradient" x1="0%" y1="0%" x2="100%" y2="100%">
      <stop offset="0%" style="stop-color:#4338ca"/>
      <stop offset="50%" style="stop-color:#9333ea"/>
      <stop offset="100%" style="stop-color:#ec4899"/>
    </linearGradient>
    
    <!-- Improved glow effect -->
    <filter id="glow" x="-50%" y="-50%" width="200%" height="200%">
      <feGaussianBlur in="SourceGraphic" stdDeviation="3" result="blur"/>
      <feColorMatrix in="blur" type="matrix" values="1 0 0 0 0  0 1 0 0 0  0 0 1 0 0  0 0 0 18 -7" result="glow"/>
      <feMerge>
        <feMergeNode in="glow"/>
        <feMergeNode in="SourceGraphic"/>
      </feMerge>
    </filter>
    
    <!-- Pattern for "excellence" theme -->
    <pattern id="craftPattern" x="0" y="0" width="20" height="20" patternUnits="userSpaceOnUse">
      <path d="M0 10 L10 0 L20 10 L10 20 Z" fill="none" stroke="url(#logoGradient)" stroke-width="0.5" opacity="0.3"/>
    </pattern>
  </defs>
  
  <!-- Background with craft pattern -->
  <circle cx="100" cy="100" r="75" fill="url(#craftPattern)" opacity="0.15"/>
  
  <!-- Modern abstract hexagon shape representing digital craft -->
  <path d="M100 30 L155 60 L155 120 L100 150 L45 120 L45 60 Z" 
        stroke="url(#logoGradient)" 
        stroke-width="2"
        fill="none" 
        opacity="0.7"/>
  
  <!-- Inner geometric shapes representing "crafting" -->
  <path d="M100 50 L130 70 L130 110 L100 130 L70 110 L70 70 Z" 
        stroke="url(#logoGradient)" 
        stroke-width="1.5"
        fill="none" 
        opacity="0.8"/>
  
  <!-- Central "I" with digital excellence aesthetics -->
  <path d="M85 75 L115 75 M100 75 L100 125 M85 125 L115 125" 
        stroke="url(#logoGradient)" 
        stroke-width="6" 
        stroke-linecap="round"
        filter="url(#glow)"/>
  
  <!-- Digital nodes with connections -->
  <circle cx="100" cy="75" r="4" fill="url(#logoGradient)" filter="url(#glow)"/>
  <circle cx="100" cy="125" r="4" fill="url(#logoGradient)" filter="url(#glow)"/>
  <circle cx="85" cy="100" r="4" fill="url(#logoGradient)" filter="url(#glow)"/>
  <circle cx="115" cy="100" r="4" fill="url(#logoGradient)" filter="url(#glow)"/>
  
  <!-- Precision lines suggesting excellence in craft -->
  <path d="M85 100 Q100 65 115 100" 
        stroke="url(#logoGradient)" 
        stroke-width="1.5" 
        fill="none"
        opacity="0.9"/>
  
  <path d="M100 75 Q130 100 100 125" 
        stroke="url(#logoGradient)" 
        stroke-width="1.5" 
        fill="none"
        opacity="0.9"/>
        
  <!-- Orbit lines suggesting digital innovation -->
  <ellipse cx="100" cy="100" rx="60" ry="30" 
           stroke="url(#logoGradient)" 
           stroke-width="0.7" 
           fill="none" 
           opacity="0.4"
           transform="rotate(30 100 100)"/>
           
  <ellipse cx="100" cy="100" rx="65" ry="25" 
           stroke="url(#logoGradient)" 
           stroke-width="0.7" 
           fill="none" 
           opacity="0.3"
           transform="rotate(-15 100 100)"/>
           
  <!-- Subtle crafting tool suggestion -->
  <path d="M70 140 L80 145 L130 145 L140 140" 
        stroke="url(#logoGradient)" 
        stroke-width="2" 
        stroke-linecap="round"
        fill="none"
        opacity="0.7"/>
        
  <!-- Hammer icon (modern, minimal, inspired by Xcode) -->
  <g transform="rotate(-18 120 70)">
    <!-- Hammer handle -->
    <rect x="117" y="85" width="8" height="38" rx="3" fill="url(#logoGradient)" opacity="0.85" filter="url(#glow)"/>
    <!-- Hammer head -->
    <rect x="112" y="80" width="18" height="10" rx="3" fill="url(#logoGradient)" opacity="0.95" filter="url(#glow)"/>
    <!-- Hammer claw (stylized) -->
    <path d="M130 80 Q136 85 130 90" stroke="url(#logoGradient)" stroke-width="3" fill="none" opacity="0.8" filter="url(#glow)"/>
  </g>
</svg>
